<svg width="40" height="40" viewBox="0 0 40 40" fill="none" xmlns="http://www.w3.org/2000/svg">
<path d="M31.4692 0H8.53083C3.81938 0 0 3.81938 0 8.53083V31.4692C0 36.1806 3.81938 40 8.53083 40H31.4692C36.1806 40 40 36.1806 40 31.4692V8.53083C40 3.81938 36.1806 0 31.4692 0Z" fill="#0A93E2"/>
<path fill-rule="evenodd" clip-rule="evenodd" d="M32.1665 13.9329C31.2895 14.3212 30.3593 14.576 29.4068 14.6888C30.4029 14.0911 31.1646 13.1478 31.5161 12.0287C30.5739 12.5872 29.5437 12.9814 28.4694 13.1947C27.8111 12.488 26.9551 11.9962 26.0131 11.7833C25.0711 11.5703 24.0868 11.6463 23.1886 12.0011C22.2904 12.356 21.5199 12.9733 20.9778 13.7725C20.4357 14.5718 20.147 15.5159 20.1495 16.4817C20.1483 16.8504 20.1896 17.218 20.2725 17.5773C18.3614 17.4815 16.4917 16.9849 14.7849 16.1199C13.078 15.2549 11.5721 14.0407 10.3648 12.5561C9.7472 13.6144 9.5573 14.8686 9.83394 16.0623C10.1106 17.256 10.8328 18.2989 11.853 18.9776C11.0887 18.9537 10.3412 18.7467 9.67342 18.3741V18.4327C9.67342 20.7646 11.3315 22.7099 13.5287 23.1493C12.8219 23.3422 12.0802 23.3702 11.3608 23.2313C11.6681 24.186 12.2657 25.0209 13.0703 25.6196C13.8748 26.2183 14.8462 26.5509 15.8489 26.571C14.8516 27.3549 13.7095 27.9344 12.4879 28.2762C11.2664 28.618 9.98939 28.7155 8.7301 28.5631C10.857 29.9283 13.3822 30.7192 16.1008 30.7192C24.9481 30.7192 29.7818 23.3954 29.7818 17.0383C29.7818 16.8332 29.7818 16.6281 29.7701 16.4172C30.7075 15.7434 31.5278 14.8938 32.1723 13.9329H32.1665Z" fill="white"/>
</svg>
