<svg width="41" height="41" viewBox="0 0 41 41" fill="none" xmlns="http://www.w3.org/2000/svg">
<rect x="0.571411" y="0.571289" width="40" height="40" rx="15" fill="white"/>
<path d="M10.8318 32.4463C10.6929 32.6025 10.5193 32.5765 10.311 32.3682C10.0853 32.1772 10.0506 32.0123 10.2068 31.8734C10.3457 31.7171 10.5193 31.7432 10.7277 31.9515C10.936 32.1425 10.9707 32.3074 10.8318 32.4463ZM9.73808 30.8577C9.89433 31.0661 9.89433 31.231 9.73808 31.3525C9.59919 31.4567 9.45162 31.3959 9.29537 31.1702C9.13912 30.9446 9.13912 30.7883 9.29537 30.7015C9.45162 30.58 9.59919 30.6321 9.73808 30.8577ZM8.14954 29.2952C8.06273 29.4168 7.94988 29.4341 7.81099 29.3473C7.63738 29.2605 7.57662 29.1564 7.6287 29.0348C7.68079 28.948 7.79363 28.9307 7.96724 28.9827C8.14086 29.0696 8.20162 29.1737 8.14954 29.2952ZM8.95683 30.1807C8.85266 30.3022 8.71377 30.2761 8.54016 30.1025C8.38391 29.9116 8.36655 29.7727 8.48808 29.6859C8.59224 29.5817 8.73113 29.6077 8.90474 29.764C9.06099 29.955 9.07836 30.0939 8.95683 30.1807ZM12.3162 33.0973C12.2468 33.3057 12.0818 33.3577 11.8214 33.2536C11.5263 33.1841 11.4134 33.0539 11.4829 32.863C11.5523 32.672 11.7172 32.6112 11.9777 32.6807C12.2554 32.7675 12.3683 32.9064 12.3162 33.0973ZM13.9568 33.2275C13.9568 33.4185 13.8179 33.514 13.5402 33.514C13.245 33.5487 13.0975 33.4532 13.0975 33.2275C13.0975 33.0366 13.2363 32.9411 13.5141 32.9411C13.8093 32.9064 13.9568 33.0018 13.9568 33.2275ZM15.4672 32.9671C15.502 33.1407 15.3804 33.2623 15.1027 33.3317C14.8249 33.4011 14.6686 33.3317 14.6339 33.1234C14.5992 32.915 14.7207 32.7848 14.9985 32.7327C15.2763 32.698 15.4325 32.7761 15.4672 32.9671ZM40.5714 8.07129V33.0713C40.5714 35.1373 39.8379 36.9038 38.3709 38.3708C36.9039 39.8378 35.1374 40.5713 33.0714 40.5713H27.2381C26.9603 40.5713 26.7476 40.5626 26.6001 40.5452C26.4525 40.5279 26.2832 40.4845 26.0922 40.415C25.9013 40.3456 25.7624 40.2197 25.6756 40.0374C25.5888 39.8551 25.5454 39.6164 25.5454 39.3213V33.0973C25.5454 31.4133 25.094 30.1807 24.1912 29.3994C25.1808 29.2952 26.0705 29.139 26.8605 28.9307C27.6504 28.7223 28.4664 28.3838 29.3084 27.915C30.1504 27.4463 30.8535 26.869 31.4178 26.1833C31.982 25.4975 32.4421 24.586 32.798 23.4489C33.1539 22.3117 33.3318 21.0053 33.3318 19.5296C33.3318 17.4289 32.6461 15.6407 31.2745 14.165C31.9169 12.5852 31.8475 10.8143 31.0662 8.85254C30.5801 8.69629 29.877 8.79177 28.9568 9.139C28.0367 9.48622 27.2381 9.86816 26.561 10.2848L25.5714 10.9098C23.9568 10.4584 22.2902 10.2327 20.5714 10.2327C18.8527 10.2327 17.186 10.4584 15.5714 10.9098C15.2936 10.7189 14.9247 10.4845 14.4646 10.2067C14.0046 9.92893 13.2797 9.59473 12.2902 9.2041C11.3006 8.81348 10.554 8.69629 10.0506 8.85254C9.28669 10.8143 9.22592 12.5852 9.86829 14.165C8.49676 15.6407 7.81099 17.4289 7.81099 19.5296C7.81099 21.0053 7.98895 22.3074 8.34485 23.4359C8.70075 24.5643 9.15648 25.4758 9.71204 26.1702C10.2676 26.8647 10.9664 27.4463 11.8084 27.915C12.6504 28.3838 13.4664 28.7223 14.2563 28.9307C15.0462 29.139 15.936 29.2952 16.9256 29.3994C16.2311 30.0244 15.8058 30.9185 15.6495 32.0817C15.285 32.2553 14.8943 32.3855 14.4777 32.4723C14.061 32.5591 13.5662 32.6025 12.9933 32.6025C12.4204 32.6025 11.8518 32.4159 11.2876 32.0426C10.7233 31.6694 10.2415 31.1268 9.84224 30.415C9.51238 29.8595 9.09138 29.4081 8.57922 29.0609C8.06707 28.7136 7.63738 28.5053 7.29016 28.4359L6.76933 28.3577C6.40474 28.3577 6.15301 28.3968 6.01412 28.4749C5.87523 28.5531 5.83183 28.6529 5.88391 28.7744C5.93599 28.8959 6.01412 29.0175 6.11829 29.139C6.22245 29.2605 6.3353 29.3647 6.45683 29.4515L6.63912 29.5817C7.02106 29.7553 7.39867 30.0852 7.77193 30.5713C8.1452 31.0574 8.41863 31.5001 8.59224 31.8994L8.85266 32.4984C9.07836 33.1581 9.4603 33.6919 9.99849 34.0999C10.5367 34.5079 11.1183 34.7683 11.7433 34.8812C12.3683 34.994 12.9716 35.0548 13.5532 35.0635C14.1348 35.0722 14.6165 35.0418 14.9985 34.9723L15.5975 34.8682C15.5975 35.5279 15.6018 36.422 15.6105 37.5505C15.6192 38.6789 15.6235 39.2692 15.6235 39.3213C15.6235 39.7032 15.528 39.994 15.337 40.1937C15.1461 40.3933 14.9551 40.5062 14.7641 40.5322C14.5731 40.5583 14.2867 40.5713 13.9047 40.5713H8.07141C6.00544 40.5713 4.23895 39.8378 2.77193 38.3708C1.30492 36.9038 0.571411 35.1373 0.571411 33.0713V8.07129C0.571411 6.00532 1.30492 4.23882 2.77193 2.77181C4.23895 1.3048 6.00544 0.571289 8.07141 0.571289H33.0714C35.1374 0.571289 36.9039 1.3048 38.3709 2.77181C39.8379 4.23882 40.5714 6.00532 40.5714 8.07129Z" fill="black"/>
</svg>
