<svg width="41" height="41" viewBox="0 0 41 41" fill="none" xmlns="http://www.w3.org/2000/svg">
<g clip-path="url(#clip0_62_46)">
<path d="M38.3492 0.571289H2.79363C1.56633 0.571289 0.571411 1.56621 0.571411 2.79351V38.3491C0.571411 39.5764 1.56633 40.5713 2.79363 40.5713H38.3492C39.5765 40.5713 40.5714 39.5764 40.5714 38.3491V2.79351C40.5714 1.56621 39.5765 0.571289 38.3492 0.571289Z" fill="#117EB8"/>
<path fill-rule="evenodd" clip-rule="evenodd" d="M7.87091 16.0423H13.217V33.2434H7.87091V16.0423V16.0423ZM10.5448 7.49177C12.2542 7.49177 13.6431 8.88066 13.6431 10.5901C13.6431 12.3012 12.2542 13.6907 10.5448 13.6907C10.1328 13.6985 9.72345 13.6241 9.34057 13.4718C8.9577 13.3195 8.60902 13.0925 8.31493 12.8039C8.02083 12.5153 7.78721 12.171 7.62773 11.7911C7.46825 11.4111 7.38611 11.0032 7.38611 10.5912C7.38611 10.1792 7.46825 9.77127 7.62773 9.39135C7.78721 9.01143 8.02083 8.66711 8.31493 8.37853C8.60902 8.08995 8.9577 7.86289 9.34057 7.71063C9.72345 7.55837 10.1328 7.48397 10.5448 7.49177V7.49177ZM16.5704 16.0418H21.6981V18.3923H21.7692C22.4831 17.0401 24.227 15.6145 26.8276 15.6145C32.2409 15.6145 33.2409 19.1773 33.2409 23.809V33.2434H27.8981V24.8784C27.8981 22.884 27.8615 20.3179 25.1204 20.3179C22.3387 20.3179 21.9115 22.4907 21.9115 24.7345V33.2434H16.5698V16.0423L16.5704 16.0418Z" fill="white"/>
</g>
<defs>
<clipPath id="clip0_62_46">
<rect x="0.571411" y="0.571289" width="40" height="40" rx="10" fill="white"/>
</clipPath>
</defs>
</svg>
