<svg width="41" height="41" viewBox="0 0 41 41" fill="none" xmlns="http://www.w3.org/2000/svg">
<g clip-path="url(#clip0_62_51)">
<path d="M31.5932 0.571289H9.54959C4.59108 0.571289 0.571411 4.59096 0.571411 9.54947V31.5931C0.571411 36.5516 4.59108 40.5713 9.54959 40.5713H31.5932C36.5517 40.5713 40.5714 36.5516 40.5714 31.5931V9.54947C40.5714 4.59096 36.5517 0.571289 31.5932 0.571289Z" fill="#FD3832"/>
<path fill-rule="evenodd" clip-rule="evenodd" d="M11.6556 27.963C11.2558 27.8418 10.891 27.6262 10.592 27.3344C10.2929 27.0427 10.0685 26.6832 9.93756 26.2865C9.18938 24.2359 8.9677 15.6734 10.4086 13.9831C10.8882 13.4332 11.5653 13.0947 12.2929 13.0409C16.1586 12.6253 28.1017 12.6807 29.4734 13.1795C29.8592 13.3046 30.2117 13.5155 30.5044 13.7962C30.7972 14.077 31.0226 14.4203 31.1637 14.8005C31.9812 16.9204 32.0089 24.6239 31.0529 26.6606C30.7993 27.1908 30.3747 27.6202 29.8475 27.8799C28.4066 28.6003 13.5676 28.5865 11.6556 27.963V27.963ZM17.7935 23.945L24.7211 20.3426L17.7935 16.7126V23.945Z" fill="white"/>
</g>
<defs>
<clipPath id="clip0_62_51">
<rect width="40" height="40" fill="white" transform="translate(0.571411 0.571289)"/>
</clipPath>
</defs>
</svg>
